<?xml version="1.0" encoding="utf-8"?>
<!-- Generator: Adobe Illustrator 24.0.1, SVG Export Plug-In . SVG Version: 6.00 Build 0)  -->
<svg version="1.1" id="Layer_1" xmlns="http://www.w3.org/2000/svg" xmlns:xlink="http://www.w3.org/1999/xlink" x="0px" y="0px"
	 viewBox="0 0 182.68 181" style="enable-background:new 0 0 182.68 181;" xml:space="preserve">
<style type="text/css">
	.st0{clip-path:url(#SVGID_2_);fill:#33CC66;}
	.st1{clip-path:url(#SVGID_4_);fill:#33CC66;}
	.st2{clip-path:url(#SVGID_6_);fill:#33CC66;}
</style>
<g>
	<defs>
		<rect id="SVGID_1_" x="2.25" width="180.44" height="180.44"/>
	</defs>
	<clipPath id="SVGID_2_">
		<use xlink:href="#SVGID_1_"  style="overflow:visible;"/>
	</clipPath>
	<path class="st0" d="M92.47,171.44c44.86,0,81.22-36.36,81.22-81.22C173.68,45.36,137.32,9,92.47,9
		C47.61,9,11.25,45.36,11.25,90.22C11.25,135.07,47.61,171.44,92.47,171.44z M2.25,90.22C2.25,40.4,42.64,0,92.47,0
		c49.82,0,90.22,40.4,90.22,90.22c0,49.83-40.4,90.22-90.22,90.22C42.64,180.44,2.25,140.05,2.25,90.22z"/>
</g>
<g>
	<defs>
		<rect id="SVGID_3_" x="41.97" y="48.26" width="101" height="40.74"/>
	</defs>
	<clipPath id="SVGID_4_">
		<use xlink:href="#SVGID_3_"  style="overflow:visible;"/>
	</clipPath>
	<path class="st1" d="M141.06,80.64L94.94,49.03c-1.5-1.02-3.46-1.02-4.96,0L43.87,80.64c-2,1.37-2.5,4.09-1.14,6.09
		c0.85,1.24,2.22,1.9,3.62,1.9c0.85,0,1.72-0.25,2.48-0.77l5.27-3.61l2.8-1.92v0.1l10.42-7.2c-0.01-0.01-0.02-0.01-0.03-0.02
		l8.36-5.73l15.27-10.54c0.12-0.09,0.26-0.13,0.39-0.19l1.16-0.8l1.16,0.8c0.13,0.06,0.27,0.1,0.39,0.19l23.68,16.23l10.34,7.09
		l2.91,2l5.73,3.93c1.92,0.94,4.28,0.37,5.52-1.45C143.57,84.74,143.06,82.02,141.06,80.64z"/>
</g>
<g>
	<defs>
		<rect id="SVGID_5_" x="56" y="82" width="73" height="50.18"/>
	</defs>
	<clipPath id="SVGID_6_">
		<use xlink:href="#SVGID_5_"  style="overflow:visible;"/>
	</clipPath>
	<path class="st2" d="M119.27,82.89v40.52h-16.52v-23.32c0-2.42-1.96-4.38-4.38-4.38H86.56c-2.42,0-4.38,1.96-4.38,4.38v23.32H65.66
		V83.04l-1.77,1.22l-7,4.84v35.66c0,4.1,3.33,7.43,7.43,7.43h56.28c4.1,0,7.43-3.33,7.43-7.43V88.9l-6.77-4.64L119.27,82.89z"/>
</g>
</svg>
